<?xml version="1.0" standalone="no"?><!DOCTYPE svg PUBLIC "-//W3C//DTD SVG 1.1//EN" "http://www.w3.org/Graphics/SVG/1.1/DTD/svg11.dtd"><svg t="1771834334456" class="icon" viewBox="0 0 1024 1024" version="1.1" xmlns="http://www.w3.org/2000/svg" p-id="16060" xmlns:xlink="http://www.w3.org/1999/xlink" width="200" height="200"><path d="M979.478261 761.321739H307.2c-24.486957 0-44.521739-20.034783-44.521739-44.521739V44.521739c0-24.486957 20.034783-44.521739 44.521739-44.521739H979.478261c24.486957 0 44.521739 20.034783 44.521739 44.521739v671.165218c0 25.6-20.034783 45.634783-44.521739 45.634782z m-627.756522-90.156522h582.121739V90.156522H351.721739v581.008695z m387.339131 299.408696V852.591304c0-18.921739-15.582609-33.391304-33.391305-33.391304s-33.391304 15.582609-33.391304 33.391304V957.217391H67.895652V352.834783h103.513044c18.921739 0 33.391304-15.582609 33.391304-33.391305s-15.582609-33.391304-33.391304-33.391304H53.426087c-28.93913 0-53.426087 23.373913-53.426087 53.426087v633.321739C0 1000.626087 23.373913 1024 53.426087 1024h633.321739c28.93913 0 52.313043-23.373913 52.313044-53.426087z" p-id="16061"></path></svg>