<?xml version="1.0" standalone="no"?><!DOCTYPE svg PUBLIC "-//W3C//DTD SVG 1.1//EN" "http://www.w3.org/Graphics/SVG/1.1/DTD/svg11.dtd"><svg t="1770709776734" class="icon" viewBox="0 0 1024 1024" version="1.1" xmlns="http://www.w3.org/2000/svg" p-id="5005" xmlns:xlink="http://www.w3.org/1999/xlink" width="200" height="200"><path d="M320.512 696.832l196.096 7.68L901.12 320c56.32-56.32 56.32-147.456 0-203.776-56.32-56.32-147.456-56.32-203.776 0L312.832 500.736l7.68 196.096zM759.808 179.2c21.504-21.504 56.832-21.504 78.336 0 21.504 21.504 21.504 56.832 0 78.336L481.28 614.4l-75.264-3.072-3.072-75.264L759.808 179.2z" p-id="5006"></path><path d="M900.096 572.928c-24.576 0-44.544 19.968-44.544 44.544v91.136c0 84.48-68.608 153.088-153.088 153.088H321.024c-84.48 0-153.088-68.608-153.088-153.088V326.144c0-84.48 68.608-153.088 153.088-153.088h91.136c24.576 0 44.544-19.968 44.544-44.544 0-24.576-19.968-44.544-44.544-44.544H321.024c-133.632 0-241.664 108.032-241.664 241.664v381.952c0 133.632 108.032 241.664 241.664 241.664h381.952c133.632 0 241.664-108.032 241.664-241.664v-91.136c0-23.552-19.968-43.52-44.544-43.52z" p-id="5007"></path></svg>