<?xml version="1.0" standalone="no"?><!DOCTYPE svg PUBLIC "-//W3C//DTD SVG 1.1//EN" "http://www.w3.org/Graphics/SVG/1.1/DTD/svg11.dtd"><svg t="1776937823175" class="icon" viewBox="0 0 1024 1024" version="1.1" xmlns="http://www.w3.org/2000/svg" p-id="6537" xmlns:xlink="http://www.w3.org/1999/xlink" width="200" height="200"><path d="M859.022222 193.422222l-68.266666-68.266666c-22.755556-22.755556-51.2-34.133333-79.644445-34.133334s-56.888889 11.377778-79.644444 34.133334L216.177778 540.444444 193.422222 739.555556c0 22.755556 11.377778 39.822222 34.133334 45.511111h5.688888l199.111112-22.755556 415.288888-415.288889c45.511111-45.511111 45.511111-113.777778 0-159.288889z m-256 290.133334L403.911111 682.666667l-119.466667 11.377777 11.377778-119.466666 199.111111-199.111111 56.888889-56.888889 108.088889 108.088889-56.888889 56.888889zM796.444444 290.133333l-79.644444 79.644445-108.088889-108.088889 79.644445-79.644445s11.377778-5.688889 17.066666-11.377777c5.688889 0 11.377778 0 17.066667 11.377777l68.266667 68.266667c11.377778 11.377778 11.377778 28.444444 0 39.822222z m147.911112 483.555556l-79.644445-17.066667c-11.377778 0-17.066667-11.377778-22.755555-22.755555l-17.066667-79.644445c0-22.755556-28.444444-28.444444-45.511111-17.066666 0 0-11.377778 11.377778-11.377778 17.066666l-17.066667 79.644445s0 11.377778-5.688889 11.377777c0 0-5.688889 5.688889-11.377777 5.688889l-79.644445 17.066667c-11.377778 0-22.755556 17.066667-22.755555 28.444444s5.688889 22.755556 22.755555 28.444445l62.577778 17.066667h17.066667c11.377778 5.688889 17.066667 11.377778 22.755555 22.755555l17.066667 79.644445c5.688889 28.444444 45.511111 28.444444 51.2 0s0-17.066667 0-17.066667l11.377778-56.888889s0-11.377778 5.688889-11.377778c0 0 5.688889-5.688889 11.377777-5.688889l79.644445-17.066666c5.688889 0 11.377778 0 17.066666-11.377778v-5.688889-11.377778c0-11.377778-5.688889-22.755556-22.755555-28.444444zM216.177778 233.244444c0-5.688889 5.688889-11.377778 17.066666-17.066666l56.888889-11.377778s11.377778 0 11.377778-5.688889v-11.377778c0-11.377778 0-17.066667-17.066667-22.755555l-56.888888-11.377778c-5.688889 0-11.377778-5.688889-17.066667-17.066667l-11.377778-56.888889c0-11.377778-11.377778-17.066667-22.755555-17.066666s-17.066667 0-22.755556 17.066666l-11.377778 56.888889v11.377778h-11.377778l-56.888888 11.377778c-11.377778 0-17.066667 11.377778-17.066667 22.755555v11.377778s5.688889 5.688889 11.377778 5.688889l56.888889 11.377778c5.688889 0 11.377778 5.688889 17.066666 17.066667l11.377778 56.888888c0 11.377778 11.377778 17.066667 22.755556 17.066667h11.377777s5.688889-5.688889 5.688889-11.377778l11.377778-56.888889z m625.777778 278.755556c0 22.755556 17.066667 39.822222 39.822222 39.822222s39.822222-17.066667 39.822222-39.822222-17.066667-39.822222-39.822222-39.822222-39.822222 17.066667-39.822222 39.822222zM96.711111 881.777778c-22.755556 0-39.822222 17.066667-39.822222 39.822222 0 22.755556 17.066667 39.822222 39.822222 39.822222 22.755556 0 39.822222-17.066667 39.822222-39.822222 0-22.755556-17.066667-39.822222-39.822222-39.822222z m415.288889 0c-22.755556 0-39.822222 17.066667-39.822222 39.822222s17.066667 39.822222 39.822222 39.822222 39.822222-17.066667 39.822222-39.822222-17.066667-39.822222-39.822222-39.822222z" fill="#2c2c2c" p-id="6538"></path></svg>