<?xml version="1.0" standalone="no"?><!DOCTYPE svg PUBLIC "-//W3C//DTD SVG 1.1//EN" "http://www.w3.org/Graphics/SVG/1.1/DTD/svg11.dtd"><svg t="1776141930577" class="icon" viewBox="0 0 1024 1024" version="1.1" xmlns="http://www.w3.org/2000/svg" p-id="11210" xmlns:xlink="http://www.w3.org/1999/xlink" width="200" height="200"><path d="M994.742857 191.634286L517.12 386.194286 39.497143 191.634286 516.388571 7.314286 994.742857 191.634286zM0 272.091429l476.16 198.948571V1009.371429c-38.034286-16.822857-76.8-34.377143-117.76-52.662858-35.108571-15.36-74.605714-32.182857-118.491429-51.2-43.885714-19.017143-88.502857-38.034286-132.388571-57.051428-16.091429-7.314286-30.72-16.822857-43.885714-29.257143-13.165714-11.702857-24.137143-24.868571-33.645715-39.497143-9.508571-13.897143-16.822857-29.257143-21.942857-45.348571-5.12-16.091429-7.314286-31.451429-7.314285-46.811429V272.091429z m1024 0v413.988571c0 19.017143-3.657143 37.302857-10.971429 54.857143-7.314286 17.554286-16.822857 34.377143-27.794285 50.468571-10.971429 15.36-24.137143 29.257143-37.302857 41.691429-13.897143 11.702857-27.062857 21.211429-40.228572 27.794286-38.765714 16.091429-78.994286 32.914286-121.417143 50.468571-42.422857 17.554286-81.188571 33.645714-117.028571 48.274286-41.691429 17.554286-81.92 34.377143-122.148572 50.468571V471.04L1024 272.091429z m0 0" fill="#2c2c2c" p-id="11211"></path></svg>