<?xml version="1.0" standalone="no"?><!DOCTYPE svg PUBLIC "-//W3C//DTD SVG 1.1//EN" "http://www.w3.org/Graphics/SVG/1.1/DTD/svg11.dtd"><svg t="1769915422828" class="icon" viewBox="0 0 1024 1024" version="1.1" xmlns="http://www.w3.org/2000/svg" p-id="11548" xmlns:xlink="http://www.w3.org/1999/xlink" width="200" height="200"><path d="M807.84096939 721.37634361c-44.6332507-44.63441465-97.57956779-77.93558187-155.34140985-98.47025436 30.46378041-15.11371435 58.59664099-35.24437561 83.34722617-59.99495965 59.79237262-59.79120867 92.72212935-139.28927459 92.72212935-223.84736711s-32.92859278-164.05615843-92.72212935-223.84853106c-59.79120867-59.79120867-139.28927459-92.72096541-223.84736712-92.7209654s-164.05615843 32.92975673-223.84853105 92.7209654c-59.79237262 59.79120867-92.72212935 139.28927459-92.72212935 223.84853106s32.92859278 164.05615843 92.72212935 223.84736711c24.75058403 24.75058403 52.88460971 44.8812453 83.34955406 59.99495965-57.76416995 20.53583645-110.70932309 53.83583858-155.34373888 98.47025436-75.30776803 75.30660409-118.34011307 174.26935467-122.22303687 280.13055431l55.44489415 0c3.85381717-91.05485938 41.11940835-176.10894109 105.96016469-240.94736839 63.45524451-63.45524451 146.27038777-100.496128 235.12240014-105.66210446 7.13829262 0.47619641 14.31617195 0.73466994 21.53712982 0.73466994 7.21979392 0 14.40000114-0.25847353 21.53712981-0.73466994 88.85084843 5.1659776 171.66831957 42.20685995 235.12240015 105.66210446 64.83959125 64.83842731 102.10634752 149.89250901 105.96016469 240.94736839l55.44489415 0C926.1822464 895.64569827 883.14873742 796.6829477 807.84096939 721.37634361zM250.84221667 339.06259854c0-144.00234041 117.15486151-261.15836587 261.15836587-261.15836587 144.00234041 0 261.15836587 117.15602546 261.15836587 261.15836587 0 136.88034759-105.85887061 249.49212957-240.00545337 260.29562311-7.02069874-0.34695965-14.07399822-0.52393301-21.1529125-0.52393301-7.08007822 0-14.13221376 0.17697337-21.15407644 0.52393301C356.69992221 588.55472811 250.84221667 475.94294613 250.84221667 339.06259854z" p-id="11549"></path></svg>