<?xml version="1.0" standalone="no"?><!DOCTYPE svg PUBLIC "-//W3C//DTD SVG 1.1//EN" "http://www.w3.org/Graphics/SVG/1.1/DTD/svg11.dtd"><svg t="1769772477454" class="icon" viewBox="0 0 1024 1024" version="1.1" xmlns="http://www.w3.org/2000/svg" p-id="10573" xmlns:xlink="http://www.w3.org/1999/xlink" width="200" height="200"><path d="M120.789333 127.274667l2.218667-2.56 4.266667-3.925334 3.968-2.816 2.218666-1.28 3.925334-1.92a43.093333 43.093333 0 0 1 21.461333-3.157333l6.272 1.237333 5.589333 1.92 715.861334 303.872a42.666667 42.666667 0 0 1-5.632 80.512l-253.568 67.925334 220.586666 220.544a42.666667 42.666667 0 1 1-60.373333 60.330666l-220.544-220.586666-67.882667 253.610666a42.666667 42.666667 0 0 1-80.512 5.632L114.773333 170.709333l-0.938666-2.432-1.152-3.669333-0.256-1.194667a42.325333 42.325333 0 0 1-0.554667-16l1.493333-6.314666 1.408-3.712c0.853333-2.133333 1.92-4.138667 3.114667-6.016l2.901333-4.096z m113.706667 107.264l214.272 504.746666 55.04-205.312a42.666667 42.666667 0 0 1 30.165333-30.165333l205.226667-55.04L234.538667 234.538667z" fill="#666666" p-id="10574"></path></svg>