<?xml version="1.0" standalone="no"?><!DOCTYPE svg PUBLIC "-//W3C//DTD SVG 1.1//EN" "http://www.w3.org/Graphics/SVG/1.1/DTD/svg11.dtd"><svg t="1776141952213" class="icon" viewBox="0 0 1024 1024" version="1.1" xmlns="http://www.w3.org/2000/svg" p-id="12248" xmlns:xlink="http://www.w3.org/1999/xlink" width="200" height="200"><path d="M670.378667 865.877333c0-12.458667-8.874667-22.613333-19.797334-22.613333H373.418667c-10.922667 0-19.797333 10.154667-19.797334 22.613333v90.368h-197.973333V1024h712.704v-67.754667h-197.973333v-90.368zM957.226667 42.666667H66.773333C29.866667 42.666667 0 72.96 0 110.421333V742.826667C0 780.288 29.866667 810.666667 66.773333 810.666667h890.453334c36.864 0 66.773333-30.336 66.773333-67.754667V110.421333C1024 72.96 994.133333 42.666667 957.226667 42.666667z m-17.92 666.24c0 11.946667-9.557333 21.674667-21.333334 21.674666H106.752a21.504 21.504 0 0 1-21.333333-21.674666v-563.2c0-11.989333 9.514667-21.674667 21.333333-21.674667h811.221333c11.776 0 21.333333 9.685333 21.333334 21.674667v563.2z m-210.133334-31.872h120.448V321.237333H729.173333v355.797334z m-192.682666 0h120.405333V211.754667h-120.405333v465.28z m-361.301334 0h120.405334v-136.832H175.189333v136.832z m168.618667 0h120.405333v-246.357334H343.808v246.357334z" fill="#000000" p-id="12249"></path></svg>