<?xml version="1.0" standalone="no"?><!DOCTYPE svg PUBLIC "-//W3C//DTD SVG 1.1//EN" "http://www.w3.org/Graphics/SVG/1.1/DTD/svg11.dtd"><svg t="1776236857109" class="icon" viewBox="0 0 1024 1024" version="1.1" xmlns="http://www.w3.org/2000/svg" p-id="4839" xmlns:xlink="http://www.w3.org/1999/xlink" width="200" height="200"><path d="M954 290.6c0-1-0.4-2-0.5-3-0.2-3.4-0.6-6.8-1.5-10.1-0.6-1.9-1.5-3.6-2.3-5.4-1-2.3-1.8-4.6-3.1-6.7-1.2-1.9-2.7-3.6-4.1-5.3-1.4-1.7-2.7-3.5-4.4-5-1.8-1.7-3.8-3-5.8-4.4-1.2-0.9-2.3-2-3.6-2.8-0.6-0.3-1.3-0.5-1.9-0.8-0.8-0.4-1.4-1.1-2.3-1.5L575.4 80.8c-20.8-9.8-44.1-11.9-60-11.9-23.8 0-46.4 4.7-63.6 13.1L98 254.3c-17.8 8.7-29.1 26.3-28.9 45.5 0 0.4 0.2 0.7 0.2 1.2 0 0.4-0.2 0.8-0.2 1.2V724c0 29.4 26 63.7 59.1 79.2L472 947.3c7.7 3.9 16.1 5.8 24.6 5.8 6.4 0 12.7-1.5 18.8-3.8 5.6-0.7 11.2-1.9 16.4-4.3l361.7-152.2c34.5-16.2 60.6-50.6 60.6-79.9V291.1v-0.2c-0.1-0.1-0.1-0.2-0.1-0.3zM523.9 417.8c-6.3 2.5-23.9 2.8-29.6 0.9L240 298.7l259.5-126.3c1.3-0.6 7-2.2 15.9-2.2 7.4 0 12.2 1.1 13.6 1.6l254 119.9-259.1 126.1zM848.3 701c-0.4 0.3-0.8 0.5-1.1 0.7l-288 132.8-9.9-312.8c0.6-0.4 1.2-0.8 1.9-1.1l297.2-146.5V701z" fill="#383838" p-id="4840"></path></svg>