<?xml version="1.0" standalone="no"?><!DOCTYPE svg PUBLIC "-//W3C//DTD SVG 1.1//EN" "http://www.w3.org/Graphics/SVG/1.1/DTD/svg11.dtd"><svg t="1769413028422" class="icon" viewBox="0 0 1024 1024" version="1.1" xmlns="http://www.w3.org/2000/svg" p-id="8051" xmlns:xlink="http://www.w3.org/1999/xlink" width="200" height="200"><path d="M958.464 294.912l-86.016-102.4c-16.384-16.384-40.96-28.672-65.536-28.672H143.36c-45.056 0-81.92 36.864-81.92 81.92v204.8c0 45.056 36.864 81.92 81.92 81.92h663.552c24.576 0 45.056-12.288 61.44-28.672l86.016-102.4c28.672-32.768 28.672-73.728 4.096-106.496zM806.912 450.56H143.36V245.76h663.552l86.016 102.4-86.016 102.4z" fill="#108e49" p-id="8052"></path><path d="M512 36.864c24.576 0 40.96 16.384 40.96 40.96v110.592c0 24.576-16.384 40.96-40.96 40.96s-40.96-16.384-40.96-40.96V77.824c0-20.48 16.384-40.96 40.96-40.96zM512 454.656c24.576 0 40.96 16.384 40.96 40.96v479.232c0 24.576-16.384 40.96-40.96 40.96s-40.96-16.384-40.96-40.96V495.616c0-20.48 16.384-40.96 40.96-40.96z" fill="#108e49" p-id="8053"></path><path d="M307.2 983.04c0-24.576 16.384-40.96 40.96-40.96h327.68c24.576 0 40.96 16.384 40.96 40.96s-16.384 40.96-40.96 40.96H348.16c-24.576 0-40.96-16.384-40.96-40.96z" fill="#108e49" p-id="8054"></path></svg>