<?xml version="1.0" standalone="no"?><!DOCTYPE svg PUBLIC "-//W3C//DTD SVG 1.1//EN" "http://www.w3.org/Graphics/SVG/1.1/DTD/svg11.dtd"><svg t="1769414905092" class="icon" viewBox="0 0 1024 1024" version="1.1" xmlns="http://www.w3.org/2000/svg" p-id="13283" xmlns:xlink="http://www.w3.org/1999/xlink" width="200" height="200"><path d="M716 704V580a8 8 0 0 1 13.352-5.948l180.04 162.04a8 8 0 0 1 0 11.892l-180.04 162.04A8 8 0 0 1 716 904.076V784H120a8 8 0 0 1-8-8v-64a8 8 0 0 1 8-8h596z m0-460V120a8 8 0 0 1 13.352-5.948l180.04 162.04a8 8 0 0 1 0 11.892l-180.04 162.04A8 8 0 0 1 716 444.076V324H120a8 8 0 0 1-8-8v-64a8 8 0 0 1 8-8h596z" p-id="13284" fill="#2c2c2c"></path></svg>