<?xml version="1.0" standalone="no"?><!DOCTYPE svg PUBLIC "-//W3C//DTD SVG 1.1//EN" "http://www.w3.org/Graphics/SVG/1.1/DTD/svg11.dtd"><svg t="1773643984820" class="icon" viewBox="0 0 1024 1024" version="1.1" xmlns="http://www.w3.org/2000/svg" p-id="9304" xmlns:xlink="http://www.w3.org/1999/xlink" width="200" height="200"><path d="M512 0a512 512 0 1 1 0 1024A512 512 0 0 1 512 0z m112.298667 568.945778H399.701333C409.6 763.221333 468.536889 910.222222 512 910.222222s102.4-147.000889 112.298667-341.276444z m-338.659556 0h-167.822222a398.677333 398.677333 0 0 0 227.896889 304.981333c-34.133333-80.213333-55.011556-186.766222-60.074667-304.981333z m620.544 0h-167.822222c-5.12 118.215111-25.941333 224.768-60.017778 305.038222A398.791111 398.791111 0 0 0 906.183111 568.888889zM345.656889 150.016A399.075556 399.075556 0 0 0 117.816889 455.111111h167.822222c5.12-118.215111 25.941333-224.824889 60.017778-305.095111zM512 113.777778l-3.697778 0.341333c-43.064889 7.964444-98.986667 152.120889-108.657778 340.992h224.711112C614.4 260.778667 555.406222 113.777778 512 113.777778z m166.286222 36.295111l0.341334 0.568889c33.905778 80.213333 54.670222 186.538667 59.733333 304.469333h167.822222a398.677333 398.677333 0 0 0-227.896889-305.038222z" fill="#5fabf7" p-id="9305"></path></svg>