<?xml version="1.0" standalone="no"?><!DOCTYPE svg PUBLIC "-//W3C//DTD SVG 1.1//EN" "http://www.w3.org/Graphics/SVG/1.1/DTD/svg11.dtd"><svg t="1773976975870" class="icon" viewBox="0 0 1024 1024" version="1.1" xmlns="http://www.w3.org/2000/svg" p-id="8619" xmlns:xlink="http://www.w3.org/1999/xlink" width="200" height="200"><path d="M614.60855451 890.97225378H168.77974827a21.47629257 21.47629257 0 0 1-21.451266-21.45126516V303.56509381L356.47832322 90.125H776.5656106a21.47271734 21.47271734 0 0 1 21.45126599 21.45126599v543.7323825A159.15051535 159.15051535 0 0 0 614.60855451 890.97225378z m65.56936898-496.7255094L600.56512595 519.50783581v20.92570945h86.4056986V594.22974502h29.34533084v-53.79977499h25.54130704v-24.18272699h-25.54130704V394.24674438H680.17792349z m-234.49093616 0V594.22974502h31.51905991v-75.79447284h30.14617813c22.33791788 0 40.98621835-5.3628165 53.93563275-15.52356546a52.9703259 52.9703259 0 0 0 15.68445062-19.89962456 68.23647592 68.23647592 0 0 0 5.6452577-28.43365238 66.28083563 66.28083563 0 0 0-5.66313382-28.45510456 47.03547574 47.03547574 0 0 0-15.80243225-18.61969866A69.05519934 69.05519934 0 0 0 537.02647698 397.33215193a138.1962041 138.1962041 0 0 0-30.74681441-3.08183232z m-78.79764935 39.12710917h1.07256281l-0.17876048 1.97709164-0.17876045 1.998543v0.11798163c-1.56236709 17.40055161-3.7039183 41.22933289-3.70391832 57.85406378V594.22974502h29.34533167V394.24674438H356.83584415l-36.1382319 101.07836444c-2.4347189 7.01098901-4.67637561 14.21146335-6.84295423 21.17239921-1.96279074 6.29952154-3.98993555 12.81713104-6.19941523 19.30613955h-1.36215527c-2.08434759-6.13148675-4.08646582-12.35950461-6.0242308-18.38016019l-0.13943299-0.4397503v-0.02145135c-2.27740979-7.08606793-4.62989849-14.4152504-7.150422-21.64075214L256.30091238 394.24674438H220.16268048V594.22974502h28.24416623v-98.90463619c0-14.15783579-1.50516348-32.9848959-2.83514254-49.59532672v-0.11083118l-0.06077802-0.75079413q-0.48622907-6.07785837-0.89737839-11.49072802h1.07256363l15.75952955 46.18815051 35.03706728 95.37232709H316.07843942l34.77965269-95.37232709 16.0348211-46.18815051zM351.43370099 138.2830917L198.1501065 292.57489575h153.28359449V138.2830917z m335.53712356 377.96415134h-54.8866387l39.39882468-60.32095889c6.07785837-10.97589798 11.46212622-21.30825696 16.03124587-30.70391171h1.07256282c-0.10368072 2.05932185-0.22523841 4.33315557-0.35752095 6.73927268v0.03932747l-0.06435405 1.17624435v0.11798164c-0.5362814 9.83540506-1.20484616 22.07692805-1.20484534 30.51085034v52.4376189z m-182.59317471-23.09586245h-27.1716026v-73.64934558h26.09903979c16.88929678 0 28.36214868 2.42756845 36.10963094 7.64022546 8.25158662 5.55587787 12.26297351 14.52250717 12.2629735 27.40756751 0 13.2747583-3.80044941 22.82057172-11.61586093 29.17372163s-19.4813248 9.42783096-35.68418069 9.42783098z" p-id="8620" fill="#7C3AED"></path><path d="M747.96392343 933.87478576a128.73977134 128.73977134 0 0 1-50.0994311-247.30091757 128.74334656 128.74334656 0 0 1 100.19886219 237.18664572A127.89959656 127.89959656 0 0 1 747.96392343 933.87478576z m-16.41379422-78.2971202h38.6408801v25.2695907a2.18802915 2.18802915 0 0 0 1.07256362 1.78760549 1.99139255 1.99139255 0 0 0 2.03072004-0.02860098l51.35790481-35.53759726a1.95564029 1.95564029 0 0 0 0-3.21769006l-51.35432959-35.58049915a1.76972937 1.76972937 0 0 0-1.94849065-0.03575225 1.90916235 1.90916235 0 0 0-0.87235099 1.81263207v25.25886503h-43.69980322c-2.39181619 0-23.51416223-0.48622907-29.07361615-17.33619754a46.53852099 46.53852099 0 0 0 18.61612344 32.90981698 25.95245636 25.95245636 0 0 0 14.8800281 4.69782697z m-5.44504586-125.48990424a1.74827801 1.74827801 0 0 0-1.0260857 0.32891913l-51.34002951 35.55189734a1.96636597 1.96636597 0 0 0 0 3.23914142l51.34360473 35.53759725a1.81978252 1.81978252 0 0 0 1.01178479 0.31461823 1.7876055 1.7876055 0 0 0 0.93312983-0.26814112 1.90916235 1.90916235 0 0 0 0.88307748-1.81263124v-25.25529063h43.68907755c2.39181619 0 23.51416223 0.48622907 29.08791622 17.34334882a46.53852099 46.53852099 0 0 0-18.61612343-32.89194086 25.86307571 25.86307571 0 0 0-14.90505387-4.70140302H727.942742v-25.27674114a1.9306137 1.9306137 0 0 0-0.88307748-1.81978254 1.75542847 1.75542847 0 0 0-0.95458117-0.28959164z" p-id="8621" fill="#7C3AED"></path></svg>