<?xml version="1.0" standalone="no"?><!DOCTYPE svg PUBLIC "-//W3C//DTD SVG 1.1//EN" "http://www.w3.org/Graphics/SVG/1.1/DTD/svg11.dtd"><svg t="1773643765879" class="icon" viewBox="0 0 1024 1024" version="1.1" xmlns="http://www.w3.org/2000/svg" p-id="8033" xmlns:xlink="http://www.w3.org/1999/xlink" width="200" height="200"><path d="M640 672H320v-64h320v64zM476.352 480H320v64h145.024c-2.496-11.52-1.984-24.064 2.24-36.736l9.088-27.264z" fill="#f5a623" p-id="8034"></path><path d="M813.056 96H370.752L160 306.752V889.6a38.4 38.4 0 0 0 38.4 38.4h627.2a38.4 38.4 0 0 0 38.4-38.4V354.048l-64 64V864h-576v-512h153.6a38.4 38.4 0 0 0 38.4-38.4V160h333.056l64-64zM352 288H269.248L352 205.248V288z" fill="#f5a623" p-id="8035"></path><path d="M875.904 168.896L583.872 460.928l-9.344 28.096 28.16-9.408 291.968-292.032-18.752-18.688z m-27.136-63.36a38.4 38.4 0 0 1 54.336 0l54.912 54.912a38.4 38.4 0 0 1 0 54.336l-314.368 314.368a38.4 38.4 0 0 1-15.04 9.28l-82.432 27.52a38.4 38.4 0 0 1-48.576-48.64l27.52-82.368a38.4 38.4 0 0 1 9.216-15.04l314.432-314.368z" fill="#f5a623" p-id="8036"></path></svg>